<svg width="145" height="153" viewBox="0 0 145 153" fill="none" xmlns="http://www.w3.org/2000/svg">
<path d="M0.492432 95.441L27.4982 152.605H0.492432V95.441Z" fill="#3A8AE4"/>
<path d="M0.492432 82.7839L33.4771 152.605H27.4982L0.492432 95.4415V82.7839Z" fill="#3A8AE4"/>
<path d="M0.492432 70.1304L39.455 152.605H33.4771L0.492432 82.7835V70.1304Z" fill="#3A8AE4"/>
<path d="M0.492432 57.4773L45.4329 152.606H39.455L0.492432 70.1305V57.4773Z" fill="#3A8AE4"/>
<path d="M3.92169 52.0809L51.4119 152.605H45.4329L0.492401 57.4773V52.0809H3.92169Z" fill="#3A8AE4"/>
<path d="M9.89961 52.0809L57.3898 152.605H51.4119L3.92172 52.0809H9.89961Z" fill="#3A8AE4"/>
<path d="M15.8774 52.0809L63.3676 152.605H57.3897L9.89952 52.0809H15.8774Z" fill="#3A8AE4"/>
<path d="M21.8554 52.0809L69.3413 152.605H63.3677L15.8775 52.0809H21.8554Z" fill="#3A8AE4"/>
<path d="M27.8343 52.0809L75.3245 152.605H69.3466L21.8564 52.0809H27.8343Z" fill="#3A8AE4"/>
<path d="M33.8123 52.0809L81.3025 152.605H75.3267L27.8344 52.0809H33.8123Z" fill="#3A8AE4"/>
<path d="M39.7901 52.0809L87.2802 152.605H81.3023L33.8122 52.0809H39.7901Z" fill="#3A8AE4"/>
<path d="M45.7691 52.0809L93.2592 152.605H87.2814L39.7912 52.0809H45.7691Z" fill="#3A8AE4"/>
<path d="M51.747 52.0809L99.2372 152.605H93.2593L45.7691 52.0809H51.747Z" fill="#3A8AE4"/>
<path d="M57.7248 52.0809L105.215 152.605H99.2371L51.7469 52.0809H57.7248Z" fill="#3A8AE4"/>
<path d="M63.7081 52.0809L111.198 152.605H105.22L57.7259 52.0809H63.7081Z" fill="#3A8AE4"/>
<path d="M69.6818 52.0809L117.172 152.605H111.194L63.7039 52.0809H69.6818Z" fill="#3A8AE4"/>
<path d="M75.6596 52.0809L123.15 152.605H117.172L69.6817 52.0809H75.6596Z" fill="#3A8AE4"/>
<path d="M81.6386 52.0809L129.124 152.605H123.147L75.6607 52.0809H81.6386Z" fill="#3A8AE4"/>
<path d="M87.6163 52.0809L135.102 152.605H129.129L81.6384 52.0809H87.6163Z" fill="#3A8AE4"/>
<path d="M93.5954 52.0809L141.086 152.605H135.103L87.6176 52.0809H93.5954Z" fill="#3A8AE4"/>
<path d="M99.5733 52.0809L144.095 146.326V152.605H141.088L93.5954 52.0809H99.5733Z" fill="#3A8AE4"/>
<path d="M105.551 52.0809L144.094 133.673V146.326L99.5733 52.0809H105.551Z" fill="#3A8AE4"/>
<path d="M111.53 52.0809L144.095 121.015V133.673L105.552 52.0809H111.53Z" fill="#3A8AE4"/>
<path d="M117.508 52.0809L144.094 108.361V121.014L111.53 52.0809H117.508Z" fill="#3A8AE4"/>
<path d="M123.49 52.0809L144.098 95.7074V108.361L117.508 52.0809H123.49Z" fill="#3A8AE4"/>
<path d="M129.465 52.0809L144.095 83.0499V95.7075L123.487 52.0809H129.465Z" fill="#3A8AE4"/>
<path d="M135.443 52.0809L144.094 70.3968V83.05L129.465 52.0809H135.443Z" fill="#3A8AE4"/>
<path d="M144.094 70.3969L135.443 52.0809H144.094V70.3969Z" fill="#3A8AE4"/>
<path d="M0.713623 52.0809L72.0681 110.232L143.878 52.0809" fill="white"/>
<path d="M0.492401 152.381L72.0724 94.9055L144.095 152.381H0.492401Z" fill="#3A8AE4"/>
<path d="M0.867248 53.1636L74.6866 0.752749C74.7115 0.734221 74.7416 0.724243 74.7725 0.724243C74.8033 0.724243 74.8334 0.734221 74.8584 0.752749L144.256 53.1647C144.28 53.1837 144.297 53.2097 144.306 53.2393C144.314 53.2688 144.314 53.3004 144.304 53.3296C144.295 53.3588 144.276 53.3842 144.252 53.4023C144.227 53.4205 144.198 53.4305 144.168 53.4309H0.952089C0.921143 53.4308 0.891039 53.4206 0.866118 53.4019C0.841196 53.3832 0.822749 53.3569 0.81343 53.3268C0.804112 53.2967 0.804417 53.2643 0.814283 53.2344C0.824148 53.2045 0.843072 53.1785 0.86833 53.1603L0.867248 53.1636Z" fill="#3A8AE4"/>
</svg>
