<svg width="247" height="206" viewBox="0 0 247 206" fill="none" xmlns="http://www.w3.org/2000/svg">
<path opacity="0.4" d="M218.03 13.7924H37.2467C25.2053 13.7924 15.4437 23.549 15.4437 35.5844V177.233C15.4437 189.268 25.2053 199.025 37.2467 199.025H218.03C230.071 199.025 239.833 189.268 239.833 177.233V35.5844C239.833 23.549 230.071 13.7924 218.03 13.7924Z" fill="#F5F4F6"/>
<path d="M93.8474 106.272V83.7186C93.8474 74.4375 97.5361 65.5365 104.102 58.9738C110.668 52.411 119.574 48.7241 128.859 48.7241V48.7241C138.145 48.7241 147.05 52.411 153.616 58.9738C160.183 65.5365 163.871 74.4375 163.871 83.7186V106.271" stroke="#3A8AE4" stroke-width="16.4576" stroke-miterlimit="10"/>
<path d="M157.735 98.47H100.503C82.1896 98.47 67.3439 113.308 67.3439 131.612V172.472C67.3439 190.776 82.1896 205.614 100.503 205.614H157.735C176.048 205.614 190.894 190.776 190.894 172.472V131.612C190.894 113.308 176.048 98.47 157.735 98.47Z" fill="#3A8AE4"/>
<path d="M151.83 98.47H102.774C83.2064 98.47 67.3439 114.325 67.3439 133.882V170.202C67.3439 189.76 83.2064 205.614 102.774 205.614H151.83C171.398 205.614 187.26 189.76 187.26 170.202V133.882C187.26 114.325 171.398 98.47 151.83 98.47Z" fill="#3A8AE4"/>
<path d="M146.755 145.154C146.755 141.936 145.873 138.78 144.205 136.027C142.538 133.274 140.148 131.031 137.295 129.539C134.443 128.047 131.236 127.364 128.022 127.564C124.809 127.764 121.712 128.84 119.067 130.674C116.421 132.508 114.329 135.031 113.016 137.97C111.703 140.908 111.22 144.149 111.619 147.342C112.019 150.536 113.285 153.559 115.28 156.084C117.276 158.609 119.925 160.54 122.941 161.667L122.376 174.011C122.359 174.365 122.413 174.718 122.536 175.049C122.658 175.381 122.845 175.685 123.087 175.943C123.329 176.202 123.62 176.409 123.944 176.552C124.267 176.696 124.616 176.773 124.969 176.78H134.306C134.663 176.78 135.017 176.707 135.346 176.566C135.675 176.425 135.971 176.219 136.218 175.96C136.465 175.701 136.657 175.395 136.782 175.06C136.907 174.725 136.962 174.368 136.946 174.011L136.31 161.227C139.416 159.84 142.054 157.585 143.907 154.733C145.759 151.881 146.747 148.555 146.751 145.155L146.755 145.154Z" fill="white"/>
<path d="M6.23183 65.7331L0.528733 64.0335L1.39742 61.182L7.10051 63.297L6.93055 56.8008H9.81986L9.63102 63.3915L15.2397 61.3142L16.1084 64.1846L10.3109 65.9031L14.05 71.0208L11.7083 72.7959L8.1958 67.3572L4.79661 72.6637L2.43606 70.9452L6.23183 65.7331ZM26.7554 65.7331L21.0523 64.0335L21.921 61.182L27.6241 63.297L27.4541 56.8008H30.3434L30.1546 63.3915L35.7633 61.3142L36.632 64.1846L30.8344 65.9031L34.5736 71.0208L32.2319 72.7959L28.7194 67.3572L25.3202 72.6637L22.9596 70.9452L26.7554 65.7331Z" fill="#3A8AE4"/>
<path d="M208.818 17.609L203.115 15.9094L203.983 13.0578L209.687 15.1729L209.517 8.67666H212.406L212.217 15.2673L217.826 13.19L218.694 16.0605L212.897 17.7789L216.636 22.8966L214.294 24.6718L210.782 19.233L207.383 24.5396L205.022 22.8211L208.818 17.609ZM231.082 17.609L225.379 15.9094L226.247 13.0578L231.951 15.1729L231.781 8.67666H234.67L234.481 15.2673L240.09 13.19L240.958 16.0605L235.161 17.7789L238.9 22.8966L236.558 24.6718L233.046 19.233L229.647 24.5396L227.286 22.8211L231.082 17.609Z" fill="#3A8AE4"/>
</svg>
